<svg enable-background="new 0 0 100 100" height="100" viewBox="0 0 100 100" width="100" xmlns="http://www.w3.org/2000/svg"><g fill="#fff"><path d="m78.3 55.3-14.6-14.6c-2.3-2.3-6-2.3-8.3 0l-14.7 14.6c-2.3 2.3-2.3 6 0 8.3l14.6 14.6c2.3 2.3 6 2.3 8.3 0l14.6-14.6c2.4-2.2 2.4-6 .1-8.3zm-27.6 6.7c-1.4 1.4-3.6 1.4-4.9 0-1.4-1.4-1.4-3.6 0-4.9 1.4-1.399 3.6-1.399 4.9 0 1.3 1.3 1.3 3.5 0 4.9zm11.3 11.3c-1.4 1.4-3.6 1.4-4.9 0-1.4-1.4-1.4-3.6 0-4.9 1.4-1.4 3.601-1.4 4.9 0 1.3 1.3 1.3 3.5 0 4.9zm0-22.6c-1.4 1.399-3.6 1.399-4.9 0-1.399-1.4-1.399-3.6 0-4.9 1.4-1.4 3.601-1.4 4.9 0 1.3 1.3 1.3 3.5 0 4.9zm11.3 11.3c-1.399 1.4-3.6 1.4-4.899 0-1.4-1.4-1.4-3.6 0-4.9 1.399-1.4 3.599-1.4 4.899 0 1.4 1.3 1.4 3.5 0 4.9z"/><path d="m53 33.5v-7.5c0-3.3-2.7-6-6-6h-21c-3.3 0-6 2.7-6 6v21c0 3.3 2.7 6 6 6h7.5c.6 0 1.2-.3 1.6-.7.3-.399.7-.8 1.1-1.2l14.8-14.9c.4-.4.8-.7 1.2-1.1.5-.4.8-1 .8-1.6zm-24.5 14.5c-1.9 0-3.5-1.6-3.5-3.5s1.6-3.5 3.5-3.5 3.5 1.6 3.5 3.5-1.6 3.5-3.5 3.5zm8-8c-1.9 0-3.5-1.6-3.5-3.5s1.6-3.5 3.5-3.5 3.5 1.6 3.5 3.5-1.6 3.5-3.5 3.5zm8-8c-1.9 0-3.5-1.6-3.5-3.5s1.6-3.5 3.5-3.5 3.5 1.6 3.5 3.5-1.6 3.5-3.5 3.5z"/></g></svg>